<svg id="Calque_1" data-name="Calque 1" xmlns="http://www.w3.org/2000/svg" viewBox="0 0 272.75 210.92"><defs><style>.cls-1{fill:#fff;}</style></defs><title>VERTICAL BLANC 2</title><path class="cls-1" d="M31.66,174.6a5.26,5.26,0,0,1-1.43-3.16q0-1.4,2.36-3.71a4.17,4.17,0,0,1,2.91-1.32q1.54,0,4.29,2.75a8.34,8.34,0,0,0,2.2,1.79,5.22,5.22,0,0,0,2.64.85q5.11,0,5.11-4.18a2.47,2.47,0,0,0-1.4-2.12,10.29,10.29,0,0,0-3.49-1.24,31.85,31.85,0,0,1-9-3.24,9.1,9.1,0,0,1-3.49-3.65,12.13,12.13,0,0,1-1.4-6,11.55,11.55,0,0,1,3.6-8.44q3.6-3.6,9.81-3.6a20.09,20.09,0,0,1,6,.85,11.56,11.56,0,0,1,3.76,1.73l1.37,1q1.7,1.6,1.7,2.69a6.06,6.06,0,0,1-1.32,3Q54,151.41,52,151.41a5.64,5.64,0,0,1-2.86-1.1,6.32,6.32,0,0,1-.63-.55,8.52,8.52,0,0,0-.85-.71,5.51,5.51,0,0,0-2.94-.71,5,5,0,0,0-3,.85,2.75,2.75,0,0,0-1.18,2.36A2.83,2.83,0,0,0,42,154a8.65,8.65,0,0,0,3.49,1.26,41.19,41.19,0,0,1,4.56,1,28.57,28.57,0,0,1,4.56,1.68,8.06,8.06,0,0,1,3.49,3.44,11.94,11.94,0,0,1,1.4,6,13.34,13.34,0,0,1-1.43,6.29,10.88,10.88,0,0,1-3.74,4.2,17.05,17.05,0,0,1-9.51,2.91,18.46,18.46,0,0,1-4.89-.63,13.2,13.2,0,0,1-3.74-1.57,13.33,13.33,0,0,1-4.07-3.41Z"/><path class="cls-1" d="M66.88,154.92a15.1,15.1,0,0,1,21,0,15.15,15.15,0,0,1,2.2,19,14.82,14.82,0,0,1-5.74,5.22,15.58,15.58,0,0,1-7,1.68,15,15,0,0,1-7-1.79,15.57,15.57,0,0,1-5.74-5.28,13.85,13.85,0,0,1-2.34-7.89A14.21,14.21,0,0,1,66.88,154.92Zm6.87,14.81a5.83,5.83,0,0,0,3.57,1.35A6,6,0,0,0,81,169.71a5.52,5.52,0,0,0,.11-8.08,5.9,5.9,0,0,0-3.68-1.32,5.76,5.76,0,0,0-3.68,1.37,4.88,4.88,0,0,0-1.7,4A4.74,4.74,0,0,0,73.75,169.73Z"/><path class="cls-1" d="M121.24,169.71l1-.71a6.54,6.54,0,0,1,2.64-1.1q1.7,0,3.68,3.08a6.41,6.41,0,0,1,1.21,3.08A2.66,2.66,0,0,1,129,176a8.64,8.64,0,0,1-1.73,1.37l-1.9,1.15a20,20,0,0,1-3.71,1.43,18.07,18.07,0,0,1-5.41.88,21.07,21.07,0,0,1-5.28-.69,22.28,22.28,0,0,1-5.5-2.31,22.67,22.67,0,0,1-5.08-4,18.2,18.2,0,0,1-3.71-6,21.26,21.26,0,0,1-1.46-7.94,20.34,20.34,0,0,1,1.43-7.78,17.82,17.82,0,0,1,3.65-5.77,21,21,0,0,1,5.08-3.82,22.24,22.24,0,0,1,10.83-3,21,21,0,0,1,9.29,2.42l1.32.77q1,.6,1.54,1a3.33,3.33,0,0,1,1.43,2.61,5.25,5.25,0,0,1-1.15,3.05q-2.14,3-3.85,3a5.8,5.8,0,0,1-2.8-1.21,9.5,9.5,0,0,0-6.16-1.87,12,12,0,0,0-7,2.47,9.26,9.26,0,0,0-2.75,3.41,11.81,11.81,0,0,0,0,9.95,9.48,9.48,0,0,0,2.8,3.46,11.77,11.77,0,0,0,7,2.42,11.44,11.44,0,0,0,3.21-.44A8.39,8.39,0,0,0,121.24,169.71Z"/><path class="cls-1" d="M137.17,154.92a15.1,15.1,0,0,1,21,0,15.15,15.15,0,0,1,2.2,19,14.82,14.82,0,0,1-5.74,5.22,15.58,15.58,0,0,1-7,1.68,15,15,0,0,1-7-1.79,15.57,15.57,0,0,1-5.74-5.28,13.85,13.85,0,0,1-2.34-7.89A14.21,14.21,0,0,1,137.17,154.92ZM144,169.73a5.83,5.83,0,0,0,3.57,1.35,6,6,0,0,0,3.63-1.37,5.52,5.52,0,0,0,.11-8.08,5.9,5.9,0,0,0-3.68-1.32,5.76,5.76,0,0,0-3.68,1.37,4.88,4.88,0,0,0-1.7,4A4.74,4.74,0,0,0,144,169.73Z"/><path class="cls-1" d="M175.81,155.14q2.58-3.9,6.21-3.9a9,9,0,0,1,8.35,4.78,18.54,18.54,0,0,1,1.46-1.73,12,12,0,0,1,2.72-2,7.64,7.64,0,0,1,3.85-1.07,9.41,9.41,0,0,1,7.36,3.38q3,3.38,3,11.18v9.62a16,16,0,0,1-.08,1.9,4.39,4.39,0,0,1-.52,1.46q-.71,1.48-4.23,1.48t-4.23-1.54a5.11,5.11,0,0,1-.47-1.46,16,16,0,0,1-.08-1.9v-9.62q0-4.78-3.41-4.78a2.7,2.7,0,0,0-2.61,1.26,7.58,7.58,0,0,0-.69,3.57v9.62a15.93,15.93,0,0,1-.08,1.92,4.44,4.44,0,0,1-.52,1.43q-.77,1.48-4.29,1.48t-4.23-1.54a5.08,5.08,0,0,1-.47-1.46,16,16,0,0,1-.08-1.9v-9.62q0-4.78-3.41-4.78t-3.3,4.78v9.73a15.77,15.77,0,0,1-.08,1.9,4.4,4.4,0,0,1-.52,1.46q-.82,1.43-4.29,1.43t-4.23-1.48a5.14,5.14,0,0,1-.47-1.43,15.93,15.93,0,0,1-.08-1.92V156.08a16,16,0,0,1,.08-1.9,3.92,3.92,0,0,1,.52-1.4q.82-1.48,3.9-1.48t4,1A4,4,0,0,1,175.81,155.14Z"/><path class="cls-1" d="M216.92,154.92a15.1,15.1,0,0,1,21,0,15.15,15.15,0,0,1,2.2,19,14.82,14.82,0,0,1-5.74,5.22,15.58,15.58,0,0,1-7,1.68,15,15,0,0,1-7-1.79,15.57,15.57,0,0,1-5.74-5.28,13.85,13.85,0,0,1-2.34-7.89A14.21,14.21,0,0,1,216.92,154.92Zm6.87,14.81a5.83,5.83,0,0,0,3.57,1.35,6,6,0,0,0,3.63-1.37,5.52,5.52,0,0,0,.11-8.08,5.9,5.9,0,0,0-3.68-1.32,5.76,5.76,0,0,0-3.68,1.37,4.88,4.88,0,0,0-1.7,4A4.74,4.74,0,0,0,223.79,169.73Z"/><path class="cls-1" d="M161,50.76a4.43,4.43,0,0,0,0-.49,24.88,24.88,0,0,0-49,.49,4.55,4.55,0,0,0-.72.06,24.89,24.89,0,0,0,.38,48.95,4.47,4.47,0,0,0,.05.61,24.88,24.88,0,0,0,49-.61,4.49,4.49,0,0,0,.7-.06A24.89,24.89,0,0,0,161,50.76ZM100.21,75.26a15.82,15.82,0,0,1,12-15.33,24.79,24.79,0,0,0,8.73,14.38,4.54,4.54,0,0,0,5.71-7,15.81,15.81,0,1,1,25.21-16.41c-10.53,2.09-18.15,11-19.94,23.78-1.14,8.19-6.49,16.45-15.86,16.45A15.84,15.84,0,0,1,100.21,75.26ZM160.55,90.6a24.79,24.79,0,0,0-8.7-14.27,4.53,4.53,0,1,0-5.71,7,15.81,15.81,0,1,1-25.25,16.26c10.32-2.2,18.24-11.35,20-23.74,1.44-10.3,7.37-16.45,15.86-16.45a15.81,15.81,0,0,1,3.82,31.16Z"/></svg>